<svg xmlns="http://www.w3.org/2000/svg" viewBox="0 0 512 512">
  <defs>
    <linearGradient id="bg" x1="66" y1="46" x2="438" y2="462" gradientUnits="userSpaceOnUse">
      <stop stop-color="#FFFFFF"/>
      <stop offset="0.55" stop-color="#EEF5FF"/>
      <stop offset="1" stop-color="#F8F1FF"/>
    </linearGradient>
    <linearGradient id="button" x1="159" y1="133" x2="359" y2="371" gradientUnits="userSpaceOnUse">
      <stop stop-color="#30D5C8"/>
      <stop offset="0.42" stop-color="#0A84FF"/>
      <stop offset="1" stop-color="#4F46E5"/>
    </linearGradient>
    <filter id="shadow" x="48" y="48" width="416" height="416" filterUnits="userSpaceOnUse" color-interpolation-filters="sRGB">
      <feDropShadow dx="0" dy="24" stdDeviation="28" flood-color="#1F3B68" flood-opacity="0.22"/>
    </filter>
  </defs>
  <rect width="512" height="512" rx="108" fill="url(#bg)"/>
  <circle cx="256" cy="256" r="138" fill="url(#button)" filter="url(#shadow)"/>
  <circle cx="218" cy="206" r="38" fill="#FFFFFF" opacity="0.72"/>
  <path d="M256 160v96l70 48" fill="none" stroke="#FFFFFF" stroke-width="34" stroke-linecap="round" stroke-linejoin="round"/>
  <rect x="92" y="116" width="34" height="34" rx="3" fill="#FFCC4D"/>
  <rect x="126" y="150" width="34" height="34" rx="3" fill="#FFCC4D" opacity="0.72"/>
  <rect x="376" y="328" width="28" height="28" rx="3" fill="#FF7A90"/>
  <rect x="404" y="356" width="28" height="28" rx="3" fill="#FF7A90" opacity="0.72"/>
  <path d="M384 112h18v18h18v18h-18v18h-18v-18h-18v-18h18v-18Z" fill="#111827" opacity="0.8"/>
</svg>
